<mxfile host="app.diagrams.net" modified="2023-05-10T06:01:12.638Z" agent="Mozilla/5.0 (Windows NT 10.0; Win64; x64) AppleWebKit/537.36 (KHTML, like Gecko) Chrome/113.0.0.0 Safari/537.36" etag="57FG8mMGGzwlUYRj5fCz" version="21.2.9" type="github">
  <diagram name="第 1 页" id="zlYn8LZgkOGk7mUqmKh2">
    <mxGraphModel dx="1518" dy="636" grid="0" gridSize="10" guides="1" tooltips="1" connect="1" arrows="1" fold="1" page="1" pageScale="1" pageWidth="3300" pageHeight="4681" math="0" shadow="0">
      <root>
        <mxCell id="0" />
        <mxCell id="1" parent="0" />
        <mxCell id="RvnOFSpZwotkTFQYASaN-4" value="" style="endArrow=classic;html=1;rounded=0;" edge="1" parent="1">
          <mxGeometry width="50" height="50" relative="1" as="geometry">
            <mxPoint x="282" y="480" as="sourcePoint" />
            <mxPoint x="162" y="608" as="targetPoint" />
          </mxGeometry>
        </mxCell>
        <mxCell id="tJDTqlyTMZX3R0a3VIU8-6" value="" style="endArrow=classic;html=1;rounded=0;" parent="1" target="tJDTqlyTMZX3R0a3VIU8-4" edge="1">
          <mxGeometry width="50" height="50" relative="1" as="geometry">
            <mxPoint x="280" y="480" as="sourcePoint" />
            <mxPoint x="280" y="40" as="targetPoint" />
          </mxGeometry>
        </mxCell>
        <mxCell id="tJDTqlyTMZX3R0a3VIU8-13" value="" style="ellipse;whiteSpace=wrap;html=1;aspect=fixed;fillColor=#54CCFF;" parent="1" vertex="1">
          <mxGeometry x="430" y="310" width="20" height="20" as="geometry" />
        </mxCell>
        <mxCell id="tJDTqlyTMZX3R0a3VIU8-20" value="" style="endArrow=classic;html=1;rounded=0;" parent="1" source="tJDTqlyTMZX3R0a3VIU8-4" edge="1">
          <mxGeometry width="50" height="50" relative="1" as="geometry">
            <mxPoint x="280" y="470" as="sourcePoint" />
            <mxPoint x="280" y="101" as="targetPoint" />
          </mxGeometry>
        </mxCell>
        <mxCell id="tJDTqlyTMZX3R0a3VIU8-16" value="" style="ellipse;whiteSpace=wrap;html=1;aspect=fixed;fillColor=#54CCFF;" parent="1" vertex="1">
          <mxGeometry x="270" y="150" width="20" height="20" as="geometry" />
        </mxCell>
        <mxCell id="tJDTqlyTMZX3R0a3VIU8-23" value="" style="endArrow=classic;html=1;rounded=0;" parent="1" edge="1">
          <mxGeometry width="50" height="50" relative="1" as="geometry">
            <mxPoint x="280" y="480" as="sourcePoint" />
            <mxPoint x="676" y="482" as="targetPoint" />
          </mxGeometry>
        </mxCell>
        <mxCell id="tJDTqlyTMZX3R0a3VIU8-15" value="" style="ellipse;whiteSpace=wrap;html=1;aspect=fixed;fillColor=#54CCFF;" parent="1" vertex="1">
          <mxGeometry x="430" y="470" width="20" height="20" as="geometry" />
        </mxCell>
        <mxCell id="tJDTqlyTMZX3R0a3VIU8-14" value="" style="ellipse;whiteSpace=wrap;html=1;aspect=fixed;fillColor=#54CCFF;" parent="1" vertex="1">
          <mxGeometry x="590" y="470" width="20" height="20" as="geometry" />
        </mxCell>
        <mxCell id="tJDTqlyTMZX3R0a3VIU8-12" value="" style="ellipse;whiteSpace=wrap;html=1;aspect=fixed;fillColor=#54CCFF;" parent="1" vertex="1">
          <mxGeometry x="270" y="310" width="20" height="20" as="geometry" />
        </mxCell>
        <mxCell id="tJDTqlyTMZX3R0a3VIU8-4" value="" style="ellipse;whiteSpace=wrap;html=1;aspect=fixed;fillColor=#FF6421;" parent="1" vertex="1">
          <mxGeometry x="270" y="470" width="20" height="20" as="geometry" />
        </mxCell>
        <mxCell id="tJDTqlyTMZX3R0a3VIU8-26" value="(0, 0, 0)" style="text;html=1;strokeColor=none;fillColor=none;align=center;verticalAlign=middle;whiteSpace=wrap;rounded=0;" parent="1" vertex="1">
          <mxGeometry x="210" y="480" width="70" height="30" as="geometry" />
        </mxCell>
        <mxCell id="tJDTqlyTMZX3R0a3VIU8-29" value="(0, 600, 0)" style="text;html=1;strokeColor=none;fillColor=none;align=center;verticalAlign=middle;whiteSpace=wrap;rounded=0;" parent="1" vertex="1">
          <mxGeometry x="200" y="145" width="70" height="30" as="geometry" />
        </mxCell>
        <mxCell id="tJDTqlyTMZX3R0a3VIU8-30" value="(0, 300, 0)" style="text;html=1;strokeColor=none;fillColor=none;align=center;verticalAlign=middle;whiteSpace=wrap;rounded=0;" parent="1" vertex="1">
          <mxGeometry x="200" y="305" width="70" height="30" as="geometry" />
        </mxCell>
        <mxCell id="tJDTqlyTMZX3R0a3VIU8-31" value="(300, 300, 0)" style="text;html=1;strokeColor=none;fillColor=none;align=center;verticalAlign=middle;whiteSpace=wrap;rounded=0;" parent="1" vertex="1">
          <mxGeometry x="450" y="275" width="80" height="30" as="geometry" />
        </mxCell>
        <mxCell id="tJDTqlyTMZX3R0a3VIU8-32" value="(300, 0, 0)" style="text;html=1;strokeColor=none;fillColor=none;align=center;verticalAlign=middle;whiteSpace=wrap;rounded=0;" parent="1" vertex="1">
          <mxGeometry x="400" y="490" width="80" height="30" as="geometry" />
        </mxCell>
        <mxCell id="tJDTqlyTMZX3R0a3VIU8-33" value="(600, 0, 0)" style="text;html=1;strokeColor=none;fillColor=none;align=center;verticalAlign=middle;whiteSpace=wrap;rounded=0;" parent="1" vertex="1">
          <mxGeometry x="560" y="490" width="80" height="30" as="geometry" />
        </mxCell>
        <mxCell id="tJDTqlyTMZX3R0a3VIU8-34" value="主节点" style="text;html=1;strokeColor=none;fillColor=none;align=center;verticalAlign=middle;whiteSpace=wrap;rounded=0;" parent="1" vertex="1">
          <mxGeometry x="215" y="465" width="60" height="30" as="geometry" />
        </mxCell>
        <mxCell id="RvnOFSpZwotkTFQYASaN-1" value="x/m" style="text;html=1;strokeColor=none;fillColor=none;align=center;verticalAlign=middle;whiteSpace=wrap;rounded=0;" vertex="1" parent="1">
          <mxGeometry x="644" y="484" width="60" height="30" as="geometry" />
        </mxCell>
        <mxCell id="RvnOFSpZwotkTFQYASaN-3" value="y/m" style="text;html=1;strokeColor=none;fillColor=none;align=center;verticalAlign=middle;whiteSpace=wrap;rounded=0;" vertex="1" parent="1">
          <mxGeometry x="218" y="97" width="60" height="30" as="geometry" />
        </mxCell>
        <mxCell id="RvnOFSpZwotkTFQYASaN-5" value="x/m" style="text;html=1;strokeColor=none;fillColor=none;align=center;verticalAlign=middle;whiteSpace=wrap;rounded=0;" vertex="1" parent="1">
          <mxGeometry x="644" y="484" width="60" height="30" as="geometry" />
        </mxCell>
        <mxCell id="RvnOFSpZwotkTFQYASaN-6" value="z/m" style="text;html=1;strokeColor=none;fillColor=none;align=center;verticalAlign=middle;whiteSpace=wrap;rounded=0;" vertex="1" parent="1">
          <mxGeometry x="155" y="597" width="60" height="30" as="geometry" />
        </mxCell>
        <mxCell id="RvnOFSpZwotkTFQYASaN-7" value="" style="shape=flexArrow;endArrow=classic;startArrow=classic;html=1;rounded=0;endWidth=10.588235294117647;endSize=8.141176470588235;startWidth=10.588235294117647;startSize=8.141176470588235;fillColor=#33FF33;" edge="1" parent="1">
          <mxGeometry width="100" height="100" relative="1" as="geometry">
            <mxPoint x="279" y="304" as="sourcePoint" />
            <mxPoint x="279" y="173" as="targetPoint" />
          </mxGeometry>
        </mxCell>
        <mxCell id="RvnOFSpZwotkTFQYASaN-9" value="" style="shape=flexArrow;endArrow=classic;startArrow=classic;html=1;rounded=0;endWidth=10.588235294117647;endSize=8.141176470588235;startWidth=10.588235294117647;startSize=8.141176470588235;fillColor=#33FF33;" edge="1" parent="1">
          <mxGeometry width="100" height="100" relative="1" as="geometry">
            <mxPoint x="427" y="319" as="sourcePoint" />
            <mxPoint x="292" y="319.40999999999997" as="targetPoint" />
          </mxGeometry>
        </mxCell>
        <mxCell id="RvnOFSpZwotkTFQYASaN-10" value="" style="shape=flexArrow;endArrow=classic;startArrow=classic;html=1;rounded=0;endWidth=10.588235294117647;endSize=8.141176470588235;startWidth=10.588235294117647;startSize=8.141176470588235;fillColor=#33FF33;" edge="1" parent="1">
          <mxGeometry width="100" height="100" relative="1" as="geometry">
            <mxPoint x="439.40999999999997" y="466" as="sourcePoint" />
            <mxPoint x="439.40999999999997" y="335" as="targetPoint" />
          </mxGeometry>
        </mxCell>
        <mxCell id="RvnOFSpZwotkTFQYASaN-11" value="" style="shape=flexArrow;endArrow=classic;startArrow=classic;html=1;rounded=0;endWidth=10.588235294117647;endSize=8.141176470588235;startWidth=10.588235294117647;startSize=8.141176470588235;fillColor=#33FF33;" edge="1" parent="1">
          <mxGeometry width="100" height="100" relative="1" as="geometry">
            <mxPoint x="280" y="465" as="sourcePoint" />
            <mxPoint x="280" y="334" as="targetPoint" />
          </mxGeometry>
        </mxCell>
        <mxCell id="RvnOFSpZwotkTFQYASaN-12" value="" style="shape=flexArrow;endArrow=classic;startArrow=classic;html=1;rounded=0;endWidth=10.588235294117647;endSize=8.141176470588235;startWidth=10.588235294117647;startSize=8.141176470588235;fillColor=#33FF33;exitX=0;exitY=0.5;exitDx=0;exitDy=0;" edge="1" parent="1" source="tJDTqlyTMZX3R0a3VIU8-14">
          <mxGeometry width="100" height="100" relative="1" as="geometry">
            <mxPoint x="590" y="479.40999999999997" as="sourcePoint" />
            <mxPoint x="455" y="479.81999999999994" as="targetPoint" />
          </mxGeometry>
        </mxCell>
        <mxCell id="RvnOFSpZwotkTFQYASaN-13" value="" style="shape=flexArrow;endArrow=classic;startArrow=classic;html=1;rounded=0;endWidth=10.588235294117647;endSize=8.141176470588235;startWidth=10.588235294117647;startSize=8.141176470588235;fillColor=#33FF33;" edge="1" parent="1">
          <mxGeometry width="100" height="100" relative="1" as="geometry">
            <mxPoint x="427" y="478.82" as="sourcePoint" />
            <mxPoint x="292" y="479.22999999999996" as="targetPoint" />
          </mxGeometry>
        </mxCell>
        <mxCell id="RvnOFSpZwotkTFQYASaN-14" value="" style="shape=umlDestroy;whiteSpace=wrap;html=1;strokeWidth=3;targetShapes=umlLifeline;strokeColor=#FF0000;" vertex="1" parent="1">
          <mxGeometry x="492" y="444.5" width="68" height="71" as="geometry" />
        </mxCell>
      </root>
    </mxGraphModel>
  </diagram>
</mxfile>
